<?xml version="1.0" encoding="UTF-8"?>
<svg id="a" data-name="uuid-cfeb6339-8f09-4671-a1ec-ee39765ff389" xmlns="http://www.w3.org/2000/svg" viewBox="0 0 192 77.95">
  <defs>
    <style>
      .b {
        fill: #bfceaa;
      }

      .b, .c, .d, .e, .f, .g, .h {
        stroke-width: 0px;
      }

      .c {
        fill: #aab157;
      }

      .d {
        fill: #237a74;
      }

      .e {
        fill: #aabdbf;
      }

      .f {
        fill: #d3d6a3;
      }

      .g {
        fill: #09527a;
      }

      .h {
        fill: #1f5979;
      }
    </style>
  </defs>
  <polygon class="f" points="16 25.07 20.17 25.07 24.4 17.64 20.29 17.64 16 25.07"/>
  <polygon class="f" points="32.32 25.07 36.49 25.07 40.78 17.64 36.61 17.64 32.32 25.07"/>
  <polygon class="f" points="24.16 25.07 28.33 25.07 32.62 17.64 28.45 17.64 24.16 25.07"/>
  <polygon class="h" points="48.88 3.55 50.94 -.01 30.45 -.01 20.23 17.64 40.78 17.64 42.78 14.19 25.61 14.19 27.73 10.5 44.89 10.5 46.77 7.24 29.72 7.24 31.84 3.55 48.88 3.55"/>
  <polygon class="b" points="55.17 42.78 53.11 39.21 44.59 39.21 46.65 42.78 55.17 42.78"/>
  <polygon class="b" points="47.01 28.64 44.95 25.07 36.37 25.07 38.49 28.64 47.01 28.64"/>
  <polygon class="b" points="51.12 35.71 49 32.14 40.48 32.14 42.54 35.71 51.12 35.71"/>
  <polygon class="c" points="20.17 25.07 16 25.07 26.28 42.84 46.65 42.84 36.37 25.07 32.38 25.07 40.96 39.88 36.73 39.88 28.15 25.07 24.34 25.07 32.86 39.82 28.69 39.82 20.17 25.07"/>
  <polygon class="e" points="50.94 -.01 48.88 3.61 53.17 10.99 55.23 7.42 50.94 -.01"/>
  <polygon class="e" points="42.78 14.19 40.72 17.76 45.01 25.13 47.07 21.56 42.78 14.19"/>
  <polygon class="e" points="46.89 7.06 44.83 10.68 49.06 18.06 51.18 14.49 46.89 7.06"/>
  <polygon class="d" points="53.11 39.21 55.17 42.84 65.44 25.07 55.23 7.42 45.01 25.13 47.01 28.64 55.59 13.77 57.65 17.45 49.12 32.26 51 35.59 59.52 20.84 61.64 24.47 53.11 39.21"/>
  <polygon class="g" points="71.49 6.15 76.32 6.15 76.32 4.94 71.49 4.94 71.49 1.86 76.75 1.86 76.75 .59 71.49 .59 71.07 .59 70.1 .59 70.1 10.68 71.07 10.68 71.49 10.68 76.81 10.68 76.81 9.41 71.49 9.41 71.49 6.15"/>
  <path class="g" d="M83.34,4.04c-.42-.24-.85-.42-1.39-.42s-.97.12-1.39.36c-.3.18-.54.42-.79.66v-.85h-1.33v6.89h1.33v-4.05c0-.36.06-.66.24-.91s.36-.48.66-.66c.24-.12.6-.24.91-.24.54,0,.97.18,1.27.48s.48.79.48,1.27v3.99h1.33v-4.29c0-.48-.12-.91-.36-1.33-.3-.3-.6-.66-.97-.91h0Z"/>
  <path class="g" d="M91.19,4.04c-.48-.3-1.03-.42-1.69-.42s-1.27.18-1.81.48-.97.73-1.27,1.27-.48,1.15-.48,1.81.18,1.27.48,1.87.73.97,1.33,1.27c.54.3,1.15.48,1.87.48.54,0,1.03-.12,1.51-.3s.91-.48,1.21-.91l-.85-.85c-.24.24-.48.48-.85.6-.3.12-.66.18-1.09.18-.48,0-.85-.12-1.21-.3s-.66-.48-.85-.85c-.12-.24-.18-.48-.24-.73h5.38c.06-.12.06-.24.06-.36v-.3c0-.66-.12-1.27-.42-1.75-.24-.48-.6-.91-1.09-1.21h0ZM88.29,5.12c.36-.18.73-.3,1.15-.3s.79.06,1.09.24c.3.18.54.42.73.73.12.24.18.48.18.79h-4.17c.06-.24.12-.48.24-.66.18-.36.42-.6.79-.79h0Z"/>
  <path class="g" d="M97.36,3.61c-.79,0-1.33.24-1.75.79-.06.06-.06.12-.12.18v-.79h-1.33v6.89h1.33v-3.93c0-.66.18-1.09.48-1.45.3-.3.73-.48,1.21-.48.24,0,.42.06.6.12s.36.18.48.36l.85-.91c-.24-.3-.48-.48-.79-.6-.3-.12-.66-.18-.97-.18h0Z"/>
  <path class="g" d="M104.92,4.7c-.24-.3-.54-.6-.91-.79s-.85-.3-1.39-.3c-.6,0-1.15.12-1.69.48s-.91.73-1.21,1.21c-.3.54-.42,1.09-.42,1.75s.12,1.27.42,1.75.66.97,1.21,1.21,1.09.42,1.69.42c.54,0,1.03-.12,1.45-.3.36-.18.66-.48.91-.79v.97c0,.6-.18,1.15-.6,1.51s-.97.54-1.69.54c-.54,0-.97-.12-1.39-.3s-.73-.48-1.03-.85l-.85.85c.36.48.79.85,1.33,1.09s1.15.36,1.87.36,1.33-.12,1.87-.42c.54-.3.97-.66,1.27-1.15s.48-1.09.48-1.75V3.79h-1.33v.91h0ZM104.01,9.05c-.3.18-.66.3-1.15.3s-.79-.12-1.15-.3-.6-.48-.79-.79c-.18-.36-.3-.73-.3-1.15s.12-.85.3-1.15.42-.6.79-.79c.3-.18.73-.3,1.15-.3s.79.12,1.15.3.54.42.73.79.24.73.24,1.15-.06.85-.24,1.15-.42.6-.73.79h0Z"/>
  <polygon class="g" points="112.96 3.79 110.84 8.63 108.84 3.79 107.39 3.79 110.11 10.08 108.42 13.53 109.87 13.53 111.2 10.74 114.41 3.79 112.96 3.79"/>
  <polygon class="g" points="88.35 37.52 93.19 37.52 93.19 36.31 88.35 36.31 88.35 33.23 93.61 33.23 93.61 32.02 88.35 32.02 87.93 32.02 86.96 32.02 86.96 42.06 87.93 42.06 88.35 42.06 93.67 42.06 93.67 40.85 88.35 40.85 88.35 37.52"/>
  <path class="g" d="M100.2,35.41c-.42-.24-.85-.42-1.39-.42s-.97.12-1.39.36c-.3.18-.54.42-.79.66v-.91h-1.33v6.89h1.33v-3.93c0-.36.06-.66.24-.91s.36-.48.66-.66c.24-.12.6-.24.91-.24.54,0,.97.18,1.27.48.3.36.48.79.48,1.27v3.99h1.33v-4.29c0-.48-.12-.91-.36-1.33-.24-.36-.6-.66-.97-.97h0Z"/>
  <polygon class="g" points="106 40.06 103.89 35.16 102.44 35.16 105.64 42.06 106.37 42.06 109.57 35.16 108.18 35.16 106 40.06"/>
  <path class="g" d="M111.32,32.14c-.24,0-.42.06-.6.24-.18.18-.24.36-.24.6s.06.42.24.6c.18.18.36.24.6.24s.42-.06.6-.24c.18-.18.24-.36.24-.6s-.06-.42-.24-.6c-.18-.18-.36-.24-.6-.24Z"/>
  <rect class="g" x="110.66" y="35.16" width="1.33" height="6.89"/>
  <path class="g" d="M117.07,35.04c-.79,0-1.33.24-1.75.79-.06.06-.06.12-.12.18v-.85h-1.27v6.89h1.33v-3.93c0-.66.18-1.09.48-1.39s.73-.48,1.21-.48c.24,0,.42.06.6.12s.36.18.48.3l.85-.91c-.24-.3-.48-.48-.79-.6-.3-.06-.66-.12-1.03-.12h0Z"/>
  <path class="g" d="M124.5,35.53c-.54-.3-1.15-.48-1.81-.48s-1.27.18-1.81.48-.97.73-1.27,1.27-.48,1.15-.48,1.81.18,1.27.48,1.81c.3.54.73.97,1.27,1.27s1.15.48,1.81.48,1.27-.18,1.81-.48.97-.73,1.27-1.33c.3-.54.48-1.15.48-1.81s-.18-1.27-.48-1.81-.73-.91-1.27-1.21ZM124.62,39.82c-.18.36-.48.6-.79.85-.36.18-.73.3-1.15.3s-.79-.12-1.15-.3c-.36-.18-.6-.48-.79-.85s-.3-.73-.3-1.21.12-.85.3-1.21.48-.6.79-.85c.36-.18.73-.3,1.15-.3s.85.12,1.15.3.6.48.79.85.3.73.3,1.21c0,.42-.12.85-.3,1.21Z"/>
  <path class="g" d="M132.6,35.41c-.42-.24-.85-.42-1.39-.42s-.97.12-1.39.36c-.3.18-.54.42-.79.66v-.91h-1.33v6.89h1.33v-3.93c0-.36.06-.66.24-.91s.36-.48.66-.66c.24-.12.6-.24.91-.24.54,0,.97.18,1.27.48.3.36.48.79.48,1.27v3.99h1.33v-4.29c0-.48-.12-.91-.36-1.33-.24-.36-.6-.66-.97-.97h0Z"/>
  <path class="g" d="M144.99,35.35c-.42-.18-.85-.3-1.33-.3s-.91.12-1.33.3c-.42.24-.73.54-.97.91h0c-.24-.36-.54-.66-.91-.91-.36-.18-.85-.3-1.33-.3s-.97.12-1.33.3c-.3.18-.54.42-.73.66v-.85h-1.39v6.89h1.33v-4.17c0-.36.06-.66.24-.91s.36-.42.6-.54.54-.18.85-.18c.48,0,.85.12,1.21.42s.48.73.48,1.21v4.17h1.33v-4.17c0-.36.06-.66.24-.91s.36-.42.6-.54.54-.18.85-.18c.48,0,.85.12,1.15.42s.48.73.48,1.21v4.17h1.33v-4.41c0-.54-.12-1.03-.36-1.39s-.6-.73-1.03-.91h0Z"/>
  <path class="g" d="M152.85,35.47c-.48-.3-1.03-.42-1.69-.42s-1.27.18-1.81.48-.97.73-1.27,1.27c-.3.54-.48,1.15-.48,1.81s.18,1.27.48,1.81c.3.54.73.97,1.27,1.27.54.3,1.15.48,1.87.48.54,0,1.03-.12,1.51-.3s.91-.48,1.21-.91l-.85-.85c-.24.3-.48.48-.85.6-.3.12-.66.18-1.09.18-.48,0-.85-.12-1.21-.3s-.66-.48-.85-.85c-.12-.24-.18-.48-.24-.73h5.38c.06-.12.06-.24.06-.36v-.3c0-.66-.12-1.27-.42-1.75-.12-.42-.54-.85-1.03-1.15h0ZM149.95,36.49c.36-.18.73-.3,1.15-.3s.79.12,1.09.24c.3.18.54.42.66.73.12.24.18.48.18.79h-4.17c.06-.24.12-.48.24-.66.24-.3.54-.54.85-.79h0Z"/>
  <path class="g" d="M160.71,35.41c-.42-.24-.85-.42-1.39-.42s-.97.12-1.39.36c-.3.18-.54.42-.79.66v-.91h-1.33v6.89h1.33v-3.93c0-.36.06-.66.24-.91s.36-.48.66-.66c.24-.12.6-.24.91-.24.54,0,.97.18,1.27.48.3.36.48.79.48,1.27v3.99h1.33v-4.29c0-.48-.12-.91-.36-1.33-.24-.36-.54-.66-.97-.97h0Z"/>
  <polygon class="g" points="167.84 35.16 166.15 35.16 166.15 32.26 164.88 32.26 164.88 35.16 163.13 35.16 163.13 36.37 164.88 36.37 164.88 42.06 166.15 42.06 166.15 36.37 167.84 36.37 167.84 35.16"/>
  <polygon class="g" points="23.74 66.48 35.4 66.48 35.4 62.79 23.74 62.79 23.74 56.02 36.43 56.02 36.43 52.21 23.74 52.21 22.41 52.21 19.57 52.21 19.57 77.6 22.41 77.6 23.74 77.6 36.61 77.6 36.61 73.79 23.74 73.79 23.74 66.48"/>
  <path class="g" d="M52.87,62.97c-.97-.6-2.12-.91-3.32-.91l6.47-7.43v-2.48h-15.72v3.75h9.73l-5.8,6.77v2.48c.36-.12.79-.18,1.21-.3.48-.06.91-.06,1.33-.06,1.09,0,2.06.18,2.84.54s1.39.91,1.81,1.57.6,1.51.6,2.48c0,.91-.24,1.75-.6,2.42-.42.73-1.03,1.27-1.75,1.63s-1.63.6-2.66.6c-1.09,0-2.12-.24-3.02-.66-.91-.48-1.63-1.09-2.12-1.87l-2.84,2.84c.97,1.21,2.12,2.12,3.45,2.72,1.39.6,2.9.91,4.59.91,1.81,0,3.45-.36,4.84-1.03,1.39-.73,2.48-1.69,3.2-2.96.79-1.27,1.15-2.72,1.15-4.35,0-1.51-.3-2.84-.91-3.99-.54-1.15-1.39-1.99-2.48-2.66Z"/>
  <path class="g" d="M83.28,73.25c-1.09.48-2.42.73-3.93.73-1.27,0-2.42-.24-3.45-.66s-1.93-1.03-2.72-1.87c-.79-.79-1.33-1.75-1.75-2.9-.42-1.09-.6-2.36-.6-3.69s.18-2.54.6-3.69c.42-1.09,1.03-2.06,1.75-2.9.79-.79,1.69-1.45,2.72-1.87s2.18-.66,3.45-.66c1.45,0,2.66.24,3.75.66,1.09.48,1.99,1.09,2.72,1.93l2.84-2.84c-1.15-1.15-2.48-2.06-3.99-2.78-1.51-.66-3.26-1.03-5.32-1.03-1.81,0-3.51.36-5.08,1.03s-2.9,1.63-4.11,2.78-2.06,2.54-2.66,4.17c-.6,1.57-.97,3.26-.97,5.08s.3,3.51.97,5.08c.6,1.57,1.51,2.96,2.66,4.17s2.54,2.12,4.11,2.78c1.57.66,3.26.97,5.08.97,2.06,0,3.81-.36,5.38-1.03,1.57-.66,2.96-1.63,4.11-2.78l-2.84-2.84c-.79,1.09-1.69,1.69-2.72,2.18Z"/>
  <path class="g" d="M103.65,60.91c-1.27-.73-2.66-1.15-4.29-1.15s-3.2.42-4.53,1.21c-1.39.79-2.48,1.87-3.26,3.26s-1.21,2.9-1.21,4.59.42,3.26,1.21,4.65c.79,1.39,1.93,2.48,3.32,3.26s2.96,1.15,4.71,1.15c1.33,0,2.66-.24,3.87-.79,1.21-.48,2.24-1.27,3.08-2.24l-2.54-2.6c-.54.6-1.21,1.09-1.93,1.39-.79.3-1.57.48-2.48.48-1.03,0-1.93-.24-2.78-.66-.79-.42-1.39-1.09-1.87-1.87-.18-.36-.36-.85-.48-1.27h13c.06-.36.12-.66.18-.97s.06-.6.06-.91c0-1.69-.36-3.14-1.09-4.47-.73-1.27-1.69-2.3-2.96-3.08ZM94.88,65.93c.42-.79.97-1.39,1.75-1.81.73-.42,1.63-.66,2.66-.66.97,0,1.81.18,2.48.6.66.36,1.15.97,1.51,1.69.18.42.36.85.48,1.39h-9.25c.06-.42.18-.85.36-1.21Z"/>
  <path class="g" d="M123.53,60.79c-1.03-.66-2.18-1.03-3.51-1.03s-2.42.3-3.45.91c-.66.36-1.27.91-1.75,1.45v-1.99h-3.99v17.41h3.99v-10.03c0-.79.18-1.45.48-2.06.36-.6.79-1.09,1.39-1.39.6-.36,1.27-.48,2.06-.48,1.15,0,2.12.36,2.84,1.15.73.73,1.09,1.69,1.09,2.84v10.03h3.99v-10.94c0-1.15-.3-2.24-.85-3.26s-1.27-1.93-2.3-2.6Z"/>
  <polygon class="g" points="137.25 52.94 133.26 52.94 133.26 60.19 129.09 60.19 129.09 63.82 133.26 63.82 133.26 77.6 137.25 77.6 137.25 63.82 141.43 63.82 141.43 60.19 137.25 60.19 137.25 52.94"/>
  <path class="g" d="M155.99,60.91c-1.27-.73-2.66-1.15-4.29-1.15s-3.2.42-4.53,1.21c-1.39.79-2.48,1.87-3.26,3.26-.79,1.39-1.21,2.9-1.21,4.59s.42,3.26,1.21,4.65c.79,1.39,1.93,2.48,3.32,3.26s2.96,1.15,4.71,1.15c1.33,0,2.66-.24,3.87-.79,1.21-.48,2.24-1.27,3.08-2.24l-2.54-2.6c-.54.6-1.21,1.09-1.93,1.39-.79.3-1.57.48-2.48.48-1.03,0-1.93-.24-2.78-.66-.79-.42-1.39-1.09-1.87-1.87-.18-.36-.36-.85-.48-1.27h13c.06-.36.12-.66.18-.97s.06-.6.06-.91c0-1.69-.36-3.14-1.09-4.47-.73-1.27-1.69-2.3-2.96-3.08ZM147.23,65.93c.42-.79.97-1.39,1.75-1.81.73-.42,1.63-.66,2.66-.66.97,0,1.81.18,2.48.6.66.36,1.15.97,1.51,1.69.18.42.36.85.48,1.39h-9.25c.06-.42.18-.85.36-1.21Z"/>
  <path class="g" d="M174.07,60.25c-.73-.3-1.51-.48-2.36-.48-1.99,0-3.45.66-4.41,2.06-.06.06-.06.12-.12.12v-1.81h-3.99v17.41h3.99v-9.67c0-1.51.36-2.6,1.09-3.32s1.63-1.03,2.78-1.03c.48,0,.97.06,1.33.24.36.12.73.36,1.03.73l2.6-2.66c-.54-.73-1.21-1.21-1.93-1.57Z"/>
  <polygon class="g" points="79.89 21.81 84.73 21.81 84.73 20.66 79.89 20.66 79.89 17.58 85.15 17.58 85.15 16.31 79.89 16.31 79.41 16.31 78.5 16.31 78.5 26.4 79.41 26.4 79.89 26.4 85.21 26.4 85.21 25.13 79.89 25.13 79.89 21.81"/>
  <path class="g" d="M88.66,20.9c.36-.18.73-.3,1.15-.3.36,0,.73.06,1.03.18s.54.3.79.54l.85-.85c-.3-.36-.73-.66-1.15-.85-.48-.18-.97-.3-1.45-.3-.66,0-1.27.18-1.81.48s-.97.73-1.27,1.27c-.3.54-.48,1.15-.48,1.81s.18,1.27.48,1.81.73.97,1.27,1.27,1.15.48,1.81.48c.54,0,1.03-.12,1.51-.3s.85-.48,1.15-.85l-.85-.85c-.24.24-.48.42-.79.54s-.66.18-1.03.18c-.42,0-.85-.12-1.15-.3-.36-.18-.6-.48-.79-.85-.18-.36-.3-.73-.3-1.21s.12-.85.3-1.21c.12-.24.42-.54.73-.73Z"/>
  <path class="g" d="M98.63,19.81c-.54-.3-1.15-.48-1.81-.48s-1.27.18-1.81.48-.97.73-1.27,1.27c-.3.54-.48,1.15-.48,1.81s.18,1.27.48,1.81.73.97,1.27,1.27c.54.3,1.15.48,1.81.48s1.27-.18,1.81-.48.97-.73,1.27-1.27c.3-.54.48-1.15.48-1.81s-.18-1.27-.48-1.81-.73-.97-1.27-1.27ZM98.75,24.1c-.18.36-.48.6-.79.85-.36.18-.73.3-1.15.3s-.85-.12-1.15-.3c-.36-.18-.6-.48-.79-.85s-.3-.79-.3-1.21.12-.85.3-1.21.48-.6.79-.85c.36-.18.73-.3,1.15-.3s.85.12,1.15.3c.36.18.6.48.79.85.18.36.3.73.3,1.21s-.12.85-.3,1.21Z"/>
  <path class="g" d="M106.73,19.75c-.42-.24-.85-.36-1.39-.36s-.97.12-1.39.36c-.3.18-.54.42-.79.66v-.91h-1.33v6.89h1.33v-4.05c0-.36.06-.66.24-.91.18-.24.36-.48.66-.66.24-.18.6-.24.91-.24.54,0,.97.18,1.27.48.3.36.48.79.48,1.27v3.99h1.33v-4.29c0-.48-.12-.91-.36-1.33-.24-.3-.54-.66-.97-.91Z"/>
  <path class="g" d="M114.77,19.81c-.54-.3-1.15-.48-1.81-.48s-1.27.18-1.81.48-.97.73-1.27,1.27c-.3.54-.48,1.15-.48,1.81s.18,1.27.48,1.81.73.97,1.27,1.27c.54.3,1.15.48,1.81.48s1.27-.18,1.81-.48.97-.73,1.27-1.27c.3-.54.48-1.15.48-1.81s-.18-1.27-.48-1.81-.73-.97-1.27-1.27ZM114.95,24.1c-.18.36-.48.6-.79.85-.36.18-.73.3-1.15.3s-.85-.12-1.15-.3c-.36-.18-.6-.48-.79-.85s-.3-.79-.3-1.21.12-.85.3-1.21.48-.6.79-.85c.36-.18.73-.3,1.15-.3s.85.12,1.15.3c.36.18.6.48.79.85.18.36.3.73.3,1.21-.06.48-.12.85-.3,1.21Z"/>
  <path class="g" d="M127.34,19.63c-.42-.24-.85-.3-1.33-.3s-.91.12-1.33.3-.73.54-.97.91h0v-.06c-.24-.36-.54-.66-.91-.91s-.85-.3-1.33-.3-.97.12-1.33.3c-.3.18-.54.42-.73.66v-.85h-1.33v6.89h1.33v-4.17c0-.36.06-.6.24-.85.18-.24.36-.42.6-.54s.54-.18.85-.18c.48,0,.85.12,1.21.42.3.3.48.73.48,1.21v4.17h1.33v-4.17c0-.36.06-.6.24-.85.18-.24.36-.42.6-.54s.54-.18.85-.18c.48,0,.85.12,1.15.42s.48.73.48,1.21v4.17h1.33v-4.41c0-.54-.12-1.03-.36-1.39-.36-.42-.66-.73-1.09-.97Z"/>
  <rect class="g" x="130.42" y="19.51" width="1.33" height="6.89"/>
  <path class="g" d="M131.09,16.43c-.24,0-.42.06-.6.24s-.24.36-.24.6.06.42.24.6c.18.18.36.24.6.24s.42-.06.6-.24.24-.36.24-.6-.06-.42-.24-.6-.36-.24-.6-.24Z"/>
  <path class="g" d="M135.68,20.9c.36-.18.73-.3,1.15-.3.36,0,.73.06,1.03.18s.54.3.79.54l.85-.85c-.3-.36-.73-.66-1.15-.85-.48-.18-.97-.3-1.45-.3-.66,0-1.27.18-1.81.48s-.97.73-1.27,1.27c-.3.54-.48,1.15-.48,1.81s.18,1.27.48,1.81.73.97,1.27,1.27c.54.3,1.15.48,1.81.48.54,0,1.03-.12,1.51-.3s.85-.48,1.15-.85l-.85-.85c-.24.24-.48.42-.79.54s-.66.18-1.03.18c-.42,0-.85-.12-1.15-.3-.36-.18-.6-.48-.79-.85-.18-.36-.3-.73-.3-1.21s.12-.85.3-1.21c.12-.24.36-.54.73-.73Z"/>
  <path class="g" d="M144.57,22.77c-.3-.18-.6-.3-.91-.36-.3-.12-.6-.18-.91-.24-.3-.06-.54-.18-.66-.3-.18-.12-.24-.3-.24-.54s.12-.42.3-.54.48-.18.85-.18.66.06.97.18.54.3.73.6l.85-.85c-.24-.36-.6-.66-1.03-.85-.42-.18-.91-.3-1.45-.3-.48,0-.97.06-1.33.24-.36.18-.66.42-.85.73-.18.3-.3.66-.3,1.09s.06.73.24,1.03c.18.24.42.42.66.6.3.12.6.24.91.36.3.12.6.18.91.3s.48.18.66.36c.18.12.24.36.24.6s-.12.42-.36.6c-.24.12-.54.18-.97.18s-.79-.06-1.09-.24c-.3-.12-.6-.36-.85-.66l-.85.85c.24.24.48.48.73.66.3.18.6.36.97.42.36.12.73.18,1.09.18.79,0,1.39-.18,1.87-.54s.66-.91.66-1.51c0-.42-.06-.79-.24-1.03-.12-.48-.36-.73-.6-.85Z"/>
</svg>