<?xml version="1.0" encoding="UTF-8"?>
<svg id="a" data-name="uuid-69f4372d-3cd3-4e79-84a4-ed5eb556a4fd" xmlns="http://www.w3.org/2000/svg" viewBox="0 0 192 78.75">
  <defs>
    <style>
      .b {
        fill: #202b65;
      }

      .b, .c {
        stroke-width: 0px;
      }

      .c {
        fill: #d32736;
      }
    </style>
  </defs>
  <rect class="c" x="67.01" y="10.88" width="1.16" height="12.86"/>
  <rect class="c" x="63.64" y="10.88" width="1.16" height="12.86"/>
  <rect class="c" x="60.3" y="5.48" width="1.16" height="18.26"/>
  <rect class="c" x="56.96" y="5.48" width="1.16" height="18.26"/>
  <rect class="c" x="53.59" y="5.48" width="1.16" height="18.26"/>
  <rect class="c" x="50.25" y="10.88" width="1.16" height="12.86"/>
  <rect class="c" x="46.91" y="10.88" width="1.16" height="12.86"/>
  <rect class="c" x="43.54" y="8.17" width="1.16" height="15.56"/>
  <rect class="c" x="40.2" y="5.29" width="1.16" height="18.41"/>
  <rect class="c" x="36.86" y="2.89" width="1.16" height="20.85"/>
  <rect class="c" x="33.49" width="1.16" height="23.74"/>
  <rect class="c" x="30.15" y="2.89" width="1.16" height="20.85"/>
  <rect class="c" x="26.81" y="5.29" width="1.16" height="18.41"/>
  <rect class="c" x="23.44" y="8.17" width="1.16" height="15.56"/>
  <rect class="c" x="20.1" y="10.88" width="1.16" height="12.86"/>
  <rect class="c" x="16.76" y="10.88" width="1.16" height="12.86"/>
  <rect class="c" x="13.39" y="5.48" width="1.16" height="18.26"/>
  <rect class="c" x="10.05" y="5.48" width="1.16" height="18.26"/>
  <rect class="c" x="6.71" y="5.48" width="1.16" height="18.26"/>
  <rect class="c" x="3.34" y="10.88" width="1.16" height="12.86"/>
  <rect class="c" y="10.88" width="1.16" height="12.86"/>
  <rect class="c" x="67.01" y="35.55" width="1.16" height="37.69"/>
  <rect class="c" x="63.64" y="35.55" width="1.16" height="37.69"/>
  <rect class="c" x="60.3" y="35.55" width="1.16" height="37.69"/>
  <rect class="c" x="56.96" y="35.55" width="1.16" height="37.69"/>
  <rect class="c" x="53.59" y="35.55" width="1.16" height="37.69"/>
  <rect class="c" x="50.25" y="35.55" width="1.16" height="37.69"/>
  <rect class="c" x="46.91" y="35.55" width="1.16" height="37.69"/>
  <rect class="c" x="43.54" y="35.55" width="1.16" height="37.69"/>
  <rect class="c" x="40.2" y="35.55" width="1.16" height="37.69"/>
  <rect class="c" x="26.81" y="35.55" width="1.16" height="37.69"/>
  <rect class="c" x="23.44" y="35.55" width="1.16" height="37.69"/>
  <rect class="c" x="20.1" y="35.55" width="1.16" height="37.69"/>
  <rect class="c" x="16.76" y="35.55" width="1.16" height="37.69"/>
  <rect class="c" x="13.39" y="35.55" width="1.16" height="37.69"/>
  <rect class="c" x="10.05" y="35.55" width="1.16" height="37.69"/>
  <rect class="c" x="6.71" y="35.55" width="1.16" height="37.69"/>
  <rect class="c" x="3.34" y="35.55" width="1.16" height="37.69"/>
  <rect class="c" y="35.55" width="1.16" height="37.69"/>
  <path class="b" d="M98.06,66.82c0,1.35-.3,2.4-.9,3.07-.6.71-1.46,1.05-2.62,1.05s-1.99-.34-2.59-1.05c-.56-.68-.86-1.73-.86-3.11v-9.79h-3.38v10.35c0,2.25.56,3.94,1.69,5.06s2.85,1.69,5.18,1.69,3.98-.56,5.1-1.69,1.69-2.81,1.69-5.06v-10.35h-3.38v9.82h.08,0Z"/>
  <path class="b" d="M119.51,56.44c-.49,0-.9.19-1.27.56-.34.38-.52.82-.52,1.31,0,.52.19.94.52,1.31s.79.56,1.27.56.94-.19,1.27-.56c.38-.38.52-.82.52-1.35s-.19-.98-.52-1.35c-.34-.3-.75-.49-1.27-.49"/>
  <rect class="b" x="118.05" y="62.51" width="3.08" height="11.14"/>
  <polygon class="b" points="128.66 69.98 126.34 62.51 122.77 62.51 127.09 73.69 130.16 73.69 134.51 62.51 131.02 62.51 128.66 69.98"/>
  <path class="b" d="M140.55,62.14c-1.65,0-2.96.56-4.01,1.69-1.05,1.12-1.58,2.59-1.58,4.31s.49,3.26,1.5,4.35c1.01,1.09,2.36,1.61,4.09,1.61,1.12,0,2.1-.23,2.92-.71.83-.49,1.54-1.2,2.1-2.18l-2.48-1.31c-.26.45-.6.82-1.01,1.05s-.9.34-1.46.34c-.75,0-1.31-.19-1.76-.6s-.71-1.01-.83-1.8h7.95c.04-.23.04-.41.04-.52v-.34c0-1.84-.49-3.26-1.46-4.31-.98-1.01-2.33-1.57-4.01-1.57M138.11,66.94c.11-.71.38-1.24.79-1.61s.98-.52,1.65-.52,1.24.19,1.65.52c.41.38.64.9.71,1.61h-4.8Z"/>
  <path class="b" d="M169.09,56.44c-.49,0-.9.19-1.27.56-.34.38-.52.82-.52,1.31,0,.52.19.94.52,1.31s.79.56,1.27.56.94-.19,1.27-.56c.38-.38.52-.82.52-1.35s-.19-.98-.52-1.35c-.34-.3-.79-.49-1.27-.49"/>
  <rect class="b" x="167.59" y="62.51" width="3.08" height="11.14"/>
  <polygon class="b" points="177.98 58.84 174.86 58.84 174.86 62.51 172.84 62.51 172.84 65.06 174.86 65.06 174.86 73.69 177.98 73.69 177.98 65.06 180 65.06 180 62.51 177.98 62.51 177.98 58.84"/>
  <polygon class="b" points="188.55 62.51 186.26 68.62 183.83 62.51 180.34 62.51 184.61 72.75 182.21 78.75 185.7 78.75 192 62.51 188.55 62.51"/>
  <path class="b" d="M110.77,62.14c-1.8,0-2.85.9-3.41,1.65v-1.27h-3v11.14h3.08v-5.62c0-1.39.98-3.19,2.62-3.19,1.27,0,1.95.56,1.95,3.3v5.51h3.08v-7.35c0-2.81-2.33-4.16-4.31-4.16"/>
  <path class="b" d="M151.05,64.65l.08-2.14h-3.04v11.14h3.08v-5.02c0-1.16.9-3.71,4.54-3.04v-3.07c-3.3-.23-4.42,1.76-4.65,2.14"/>
  <path class="b" d="M162.34,67.09c-.08-.04-.23-.07-.38-.11-1.39-.49-2.06-.98-2.06-1.54,0-.3.15-.56.41-.79.26-.19.64-.3,1.09-.3s.83.11,1.12.34c.3.23.49.52.64.94l2.25-1.16c-.3-.75-.83-1.31-1.5-1.69-.67-.41-1.5-.6-2.44-.6-1.31,0-2.4.34-3.19,1.01-.83.68-1.2,1.54-1.2,2.62,0,.75.23,1.35.71,1.84.49.49,1.31.98,2.55,1.5.19.07.45.19.75.3,1.01.38,1.54.82,1.54,1.35,0,.34-.15.6-.41.79-.3.19-.67.3-1.16.3-.52,0-.94-.11-1.27-.38s-.52-.52-.75-.9l-2.25,1.16c.26.75.79,1.31,1.54,1.76.75.41,1.69.64,2.77.64,1.39,0,2.48-.34,3.26-.98.83-.64,1.2-1.54,1.2-2.62,0-.82-.23-1.5-.71-2.02-.56-.6-1.39-1.05-2.51-1.46"/>
  <polygon class="b" points="99.49 22.28 91.27 10.91 87.75 10.91 87.75 27.56 90.98 27.56 91.01 16.09 99.38 27.56 102.71 27.56 102.71 10.91 99.49 10.91 99.49 22.28"/>
  <polygon class="b" points="124.12 12.64 121.05 12.64 121.05 16.35 118.99 16.35 118.99 18.86 121.05 18.86 121.05 27.49 124.12 27.49 124.12 18.86 126.15 18.86 126.15 16.35 124.12 16.35 124.12 12.64"/>
  <rect class="b" x="128.36" y="16.35" width="3.08" height="11.14"/>
  <path class="b" d="M139.35,15.97c-1.69,0-3.11.56-4.24,1.72-1.12,1.12-1.69,2.55-1.69,4.28s.56,3.11,1.69,4.28c1.12,1.12,2.55,1.69,4.24,1.69s3.11-.56,4.24-1.69,1.69-2.55,1.69-4.28-.56-3.15-1.65-4.28c-1.12-1.16-2.55-1.72-4.27-1.72M141.38,24.07c-.52.56-1.2.82-2.02.82s-1.54-.26-2.02-.82-.75-1.28-.75-2.17.26-1.65.75-2.17c.49-.53,1.16-.79,2.02-.79s1.54.26,2.02.83c.49.53.75,1.28.75,2.17s-.26,1.61-.75,2.14"/>
  <rect class="b" x="175.05" y="10.39" width="3.08" height="17.1"/>
  <path class="b" d="M153.71,15.94c-1.8,0-2.85.9-3.41,1.65v-1.28h-3v11.14h3.08v-5.62c0-1.39.98-3.19,2.62-3.19,1.27,0,1.95.56,1.95,3.3v5.51h3.08v-7.35c.04-2.81-2.33-4.16-4.31-4.16"/>
  <path class="b" d="M129.9,10.24c-1.01,0-1.84.83-1.84,1.84s.83,1.84,1.84,1.84,1.84-.83,1.84-1.84c-.04-1.01-.86-1.84-1.84-1.84"/>
  <path class="b" d="M114.79,35.32c0-.53.19-.97.52-1.31.34-.38.79-.56,1.27-.56s.94.19,1.27.56.52.82.52,1.35-.19.97-.52,1.35c-.38.38-.79.56-1.27.56s-.9-.19-1.27-.56c-.34-.45-.52-.9-.52-1.39M115.05,39.52h3.08v11.14h-3.08v-11.14Z"/>
  <path class="b" d="M130.61,39.53l1.91,8.14,2.25-8.14h3.34l-3.67,11.14h-3.26s-2.14-7.88-2.25-8.4c-.11.53-2.17,8.4-2.17,8.4h-3.26l-3.67-11.14h3.34l2.21,8.14,1.91-8.14s3.34,0,3.34,0Z"/>
  <path class="b" d="M153.52,50.66v-11.14h3v1.28c.56-.71,1.61-1.65,3.41-1.65,1.99,0,4.31,1.35,4.31,4.16v7.35h-3.08v-5.51c0-2.74-.71-3.3-1.95-3.3-1.65,0-2.62,1.8-2.62,3.19v5.62h-3.08,0Z"/>
  <path class="b" d="M109.09,39.53v1.09c-.98-1.01-2.21-1.46-3.08-1.46-1.69,0-3.08.56-4.2,1.69s-1.65,2.55-1.65,4.24.56,3.11,1.65,4.24,2.51,1.69,4.2,1.69c.86,0,2.1-.34,3.08-1.31v.94h3.04v-11.14l-3.04.04h0ZM108,47.21c-.49.53-1.16.83-1.99.83s-1.5-.26-1.99-.82c-.49-.53-.75-1.28-.75-2.18s.26-1.61.75-2.18c.49-.53,1.16-.79,1.99-.79s1.5.26,1.99.79.75,1.28.75,2.18-.26,1.65-.75,2.18"/>
  <path class="b" d="M147.56,39.53v1.09c-.98-1.01-2.21-1.46-3.08-1.46-1.69,0-3.08.56-4.2,1.69s-1.65,2.55-1.65,4.24.56,3.11,1.65,4.24,2.51,1.69,4.2,1.69c.86,0,2.1-.34,3.08-1.31v.94h3.04v-11.14l-3.04.04h0ZM146.48,47.21c-.49.53-1.16.83-1.99.83s-1.5-.26-1.99-.82c-.49-.53-.75-1.28-.75-2.18s.26-1.61.75-2.18c.49-.53,1.16-.79,1.99-.79s1.5.26,1.99.79.75,1.28.75,2.18-.26,1.65-.75,2.18"/>
  <path class="b" d="M169.05,16.35v1.09c-.98-1.01-2.21-1.46-3.08-1.46-1.69,0-3.08.56-4.2,1.69s-1.65,2.55-1.65,4.24.56,3.11,1.65,4.24,2.51,1.69,4.2,1.69c.86,0,2.1-.34,3.08-1.31v.94h3.04v-11.1h-3.04ZM167.96,24.04c-.49.53-1.16.82-1.99.82s-1.5-.26-1.99-.82c-.49-.53-.75-1.28-.75-2.17s.26-1.65.75-2.17c.49-.53,1.16-.79,1.99-.79s1.5.26,2.02.83c.49.53.75,1.28.75,2.17-.04.9-.3,1.61-.79,2.14"/>
  <path class="b" d="M113.74,16.35v1.09c-.98-1.01-2.21-1.46-3.08-1.46-1.69,0-3.08.56-4.2,1.69s-1.65,2.55-1.65,4.24.56,3.11,1.65,4.24,2.51,1.69,4.2,1.69c.86,0,2.1-.34,3.08-1.31v.94h3.04v-11.1h-3.04ZM112.65,24.04c-.49.53-1.16.82-1.99.82s-1.5-.26-1.99-.82c-.49-.53-.75-1.28-.75-2.17s.26-1.65.75-2.17c.49-.53,1.16-.79,1.99-.79s1.5.26,2.02.83c.49.53.75,1.28.75,2.17-.04.9-.3,1.61-.79,2.14"/>
  <polygon class="b" points="102.3 34.01 87.75 34.01 87.75 37.01 93.34 37.01 93.34 50.62 96.71 50.62 96.71 37.01 102.3 37.01 102.3 34.01"/>
</svg>